<svg width="320" height="64" viewBox="0 0 320 64" fill="none" xmlns="http://www.w3.org/2000/svg">
<g id="Property 1=Frame 234">
<rect width="320" height="64" rx="8" fill="white" fill-opacity="0.2"/>
<g id="Component 1">
<rect width="40" height="40" rx="20" transform="matrix(-1 0 0 1 50 12)" fill="#A82AD5"/>
<path id="Icon" d="M34.5 30.5H34.49M30 30.5H29.99M25.5 30.5H25.49M35 38V40.3355C35 40.8684 35 41.1348 34.8908 41.2716C34.7958 41.3906 34.6517 41.4599 34.4995 41.4597C34.3244 41.4595 34.1163 41.2931 33.7002 40.9602L31.3148 39.0518C30.8275 38.662 30.5838 38.4671 30.3125 38.3285C30.0718 38.2055 29.8156 38.1156 29.5508 38.0613C29.2523 38 28.9403 38 28.3163 38H25.8C24.1198 38 23.2798 38 22.638 37.673C22.0735 37.3854 21.6146 36.9265 21.327 36.362C21 35.7202 21 34.8802 21 33.2V27.8C21 26.1198 21 25.2798 21.327 24.638C21.6146 24.0735 22.0735 23.6146 22.638 23.327C23.2798 23 24.1198 23 25.8 23H34.2C35.8802 23 36.7202 23 37.362 23.327C37.9265 23.6146 38.3854 24.0735 38.673 24.638C39 25.2798 39 26.1198 39 27.8V34C39 34.93 39 35.395 38.8978 35.7765C38.6204 36.8117 37.8117 37.6204 36.7765 37.8978C36.395 38 35.93 38 35 38ZM34 30.5C34 30.7761 34.2239 31 34.5 31C34.7761 31 35 30.7761 35 30.5C35 30.2239 34.7761 30 34.5 30C34.2239 30 34 30.2239 34 30.5ZM29.5 30.5C29.5 30.7761 29.7239 31 30 31C30.2761 31 30.5 30.7761 30.5 30.5C30.5 30.2239 30.2761 30 30 30C29.7239 30 29.5 30.2239 29.5 30.5ZM25 30.5C25 30.7761 25.2239 31 25.5 31C25.7761 31 26 30.7761 26 30.5C26 30.2239 25.7761 30 25.5 30C25.2239 30 25 30.2239 25 30.5Z" stroke="white" stroke-width="2" stroke-linecap="round" stroke-linejoin="round"/>
</g>
<g id="Frame 214">
<path id="&#236;&#177;&#132;&#237;&#140;&#133;&#236;&#156;&#188;&#235;&#161;&#156; &#235;&#185;&#160;&#235;&#165;&#180;&#234;&#178;&#140; &#235;&#172;&#184;&#236;&#157;&#152;&#237;&#149;&#152;&#234;&#184;&#176;" d="M66.828 20.866H68.228V21.202C68.228 23.89 67.444 26.592 65.372 27.782L64.322 26.382C66.17 25.304 66.828 23.19 66.828 21.202V20.866ZM67.192 20.866H68.592V21.202C68.592 23.148 69.264 25.122 71.098 26.102L70.09 27.474C67.99 26.382 67.192 23.848 67.192 21.202V20.866ZM64.756 19.466H70.65V20.964H64.756V19.466ZM66.828 17.716H68.592V20.67H66.828V17.716ZM74.024 17.282H75.788V30.246H74.024V17.282ZM72.47 22.252H74.626V23.764H72.47V22.252ZM71.238 17.478H72.974V29.658H71.238V17.478ZM78.1529 23.092H79.2589C81.9329 23.092 83.4869 23.064 85.2649 22.784L85.4469 24.226C83.6269 24.534 81.9889 24.562 79.2589 24.562H78.1529V23.092ZM78.1529 18.178H84.3829V19.648H80.0009V23.694H78.1529V18.178ZM79.4269 20.642H84.0049V22.07H79.4269V20.642ZM86.3429 17.296H88.2189V25.122H86.3429V17.296ZM83.8369 25.318C86.5669 25.318 88.2749 26.228 88.2749 27.782C88.2749 29.35 86.5669 30.246 83.8369 30.246C81.0929 30.246 79.3989 29.35 79.3989 27.782C79.3989 26.228 81.0929 25.318 83.8369 25.318ZM83.8369 26.746C82.1429 26.746 81.2609 27.082 81.2609 27.782C81.2609 28.496 82.1429 28.832 83.8369 28.832C85.5169 28.832 86.4129 28.496 86.4129 27.782C86.4129 27.082 85.5169 26.746 83.8369 26.746ZM96.1838 17.926C98.9138 17.926 101.028 19.424 101.028 21.678C101.028 23.946 98.9138 25.43 96.1838 25.43C93.4538 25.43 91.3398 23.946 91.3398 21.678C91.3398 19.424 93.4538 17.926 96.1838 17.926ZM96.1838 19.438C94.4198 19.438 93.1598 20.278 93.1598 21.678C93.1598 23.064 94.4198 23.904 96.1838 23.904C97.9478 23.904 99.2078 23.064 99.2078 21.678C99.2078 20.278 97.9478 19.438 96.1838 19.438ZM90.3318 27.166H102.064V28.692H90.3318V27.166ZM103.211 27.306H114.943V28.818H103.211V27.306ZM108.125 24.856H109.987V27.922H108.125V24.856ZM104.527 18.122H113.627V22.434H106.403V24.618H104.555V20.978H111.779V19.592H104.527V18.122ZM104.555 23.876H113.921V25.374H104.555V23.876ZM128.41 17.282H130.244V30.246H128.41V17.282ZM129.236 22.07H131.518V23.596H129.236V22.07ZM119.632 18.458H121.158V21.44H121.928V18.458H123.426V27.25H119.632V18.458ZM121.158 22.896V25.752H121.928V22.896H121.158ZM123.93 18.458H125.428V21.44H126.212V18.458H127.738V27.25H123.93V18.458ZM125.428 22.896V25.752H126.212V22.896H125.428ZM132.455 27.264H144.187V28.79H132.455V27.264ZM133.771 18.15H142.871V22.476H135.647V24.646H133.799V21.02H141.023V19.634H133.771V18.15ZM133.799 23.918H143.165V25.402H133.799V23.918ZM154.714 17.282H156.492V30.246H154.714V17.282ZM149.576 22.252H152.348V23.722H149.576V22.252ZM151.984 17.562H153.72V29.672H151.984V17.562ZM149.156 18.808H150.948C150.948 22.504 149.842 25.444 146.202 27.558L145.152 26.256C148.106 24.478 149.156 22.322 149.156 19.186V18.808ZM145.88 18.808H149.744V20.292H145.88V18.808ZM161.685 23.68H173.417V25.164H161.685V23.68ZM166.767 24.618H168.643V27.348H166.767V24.618ZM163.127 17.828H171.933V22.644H163.127V17.828ZM170.099 19.284H164.947V21.188H170.099V19.284ZM163.043 28.538H172.129V30.022H163.043V28.538ZM163.043 26.256H164.891V29.028H163.043V26.256ZM178.736 18.136C180.78 18.136 182.306 19.466 182.306 21.328C182.306 23.204 180.78 24.534 178.736 24.534C176.706 24.534 175.152 23.204 175.152 21.328C175.152 19.466 176.706 18.136 178.736 18.136ZM178.736 19.732C177.742 19.732 176.986 20.32 176.986 21.328C176.986 22.35 177.742 22.938 178.736 22.938C179.73 22.938 180.486 22.35 180.486 21.328C180.486 20.32 179.73 19.732 178.736 19.732ZM183.524 17.268H185.386V30.274H183.524V17.268ZM174.844 27.642L174.62 26.144C176.902 26.144 180.08 26.116 182.81 25.71L182.95 27.054C180.136 27.614 177.084 27.642 174.844 27.642ZM195.759 17.282H197.607V30.246H195.759V17.282ZM197.187 22.336H199.483V23.89H197.187V22.336ZM187.387 19.2H194.933V20.684H187.387V19.2ZM191.181 21.412C193.071 21.412 194.471 22.7 194.471 24.506C194.471 26.312 193.071 27.6 191.181 27.6C189.291 27.6 187.891 26.312 187.891 24.506C187.891 22.7 189.291 21.412 191.181 21.412ZM191.181 22.924C190.299 22.924 189.669 23.512 189.669 24.506C189.669 25.5 190.299 26.088 191.181 26.088C192.063 26.088 192.693 25.5 192.693 24.506C192.693 23.512 192.063 22.924 191.181 22.924ZM190.243 17.492H192.105V19.76H190.243V17.492ZM209.254 17.282H211.13V30.246H209.254V17.282ZM205.432 18.626H207.28C207.28 22.588 205.936 25.836 201.33 28.062L200.364 26.578C204.088 24.786 205.432 22.434 205.432 18.962V18.626ZM201.05 18.626H206.314V20.096H201.05V18.626Z" fill="white"/>
<g id="Frame 213">
<g id="Icons_box" clip-path="url(#clip0_754_2578)">
<path id="Icon_2" d="M72 37.8V42L74.8 43.4M79 42C79 45.866 75.866 49 72 49C68.134 49 65 45.866 65 42C65 38.134 68.134 35 72 35C75.866 35 79 38.134 79 42Z" stroke="white" stroke-linecap="round" stroke-linejoin="round"/>
</g>
<path id="&#236;&#155;&#148;&#236;&#154;&#148;&#236;&#157;&#188; 10:00&#235;&#182;&#128;&#237;&#132;&#176; &#236;&#154;&#180;&#236;&#152;&#129;" d="M87.504 40.576H88.5V42.508H87.504V40.576ZM92.484 36.088H93.48V42.472H92.484V36.088ZM84.684 40.912L84.564 40.168C86.652 40.168 89.304 40.156 91.62 39.892L91.68 40.54C89.304 40.888 86.712 40.912 84.684 40.912ZM86.208 42.868H93.48V45.124H87.204V46.348H86.232V44.464H92.496V43.588H86.208V42.868ZM86.232 46.096H93.84V46.816H86.232V46.096ZM90.324 41.248H92.796V41.896H90.324V41.248ZM88.068 36.292C89.676 36.292 90.732 36.916 90.732 37.924C90.732 38.932 89.676 39.556 88.068 39.556C86.448 39.556 85.392 38.932 85.392 37.924C85.392 36.916 86.448 36.292 88.068 36.292ZM88.068 36.988C87 36.988 86.316 37.348 86.316 37.924C86.316 38.5 87 38.86 88.068 38.86C89.112 38.86 89.796 38.5 89.796 37.924C89.796 37.348 89.112 36.988 88.068 36.988ZM98.0391 41.668H99.0231V44.92H98.0391V41.668ZM102.047 41.668H103.043V44.92H102.047V41.668ZM95.6391 44.728H105.467V45.556H95.6391V44.728ZM100.535 36.772C102.827 36.772 104.471 37.864 104.471 39.568C104.471 41.26 102.827 42.352 100.535 42.352C98.2311 42.352 96.5871 41.26 96.5871 39.568C96.5871 37.864 98.2311 36.772 100.535 36.772ZM100.535 37.564C98.7951 37.564 97.5471 38.356 97.5471 39.568C97.5471 40.768 98.7951 41.56 100.535 41.56C102.275 41.56 103.511 40.768 103.511 39.568C103.511 38.356 102.275 37.564 100.535 37.564ZM109.714 36.484C111.334 36.484 112.522 37.468 112.522 38.896C112.522 40.312 111.334 41.296 109.714 41.296C108.106 41.296 106.918 40.312 106.918 38.896C106.918 37.468 108.106 36.484 109.714 36.484ZM109.714 37.3C108.67 37.3 107.878 37.96 107.878 38.896C107.878 39.832 108.67 40.48 109.714 40.48C110.77 40.48 111.55 39.832 111.55 38.896C111.55 37.96 110.77 37.3 109.714 37.3ZM114.562 36.088H115.57V41.644H114.562V36.088ZM108.55 42.172H115.57V44.812H109.546V46.444H108.574V44.068H114.586V42.976H108.55V42.172ZM108.574 46H115.93V46.792H108.574V46ZM124.365 37.4219V46H123.281V38.7754L121.096 39.5723V38.5938L124.195 37.4219H124.365ZM132.908 41.0547V42.3555C132.908 43.0547 132.846 43.6445 132.721 44.125C132.596 44.6055 132.416 44.9922 132.182 45.2852C131.947 45.5781 131.664 45.791 131.332 45.9238C131.004 46.0527 130.633 46.1172 130.219 46.1172C129.891 46.1172 129.588 46.0762 129.311 45.9941C129.033 45.9121 128.783 45.7812 128.561 45.6016C128.342 45.418 128.154 45.1797 127.998 44.8867C127.842 44.5938 127.723 44.2383 127.641 43.8203C127.559 43.4023 127.518 42.9141 127.518 42.3555V41.0547C127.518 40.3555 127.58 39.7695 127.705 39.2969C127.834 38.8242 128.016 38.4453 128.25 38.1602C128.484 37.8711 128.766 37.6641 129.094 37.5391C129.426 37.4141 129.797 37.3516 130.207 37.3516C130.539 37.3516 130.844 37.3926 131.121 37.4746C131.402 37.5527 131.652 37.6797 131.871 37.8555C132.09 38.0273 132.275 38.2578 132.428 38.5469C132.584 38.832 132.703 39.1816 132.785 39.5957C132.867 40.0098 132.908 40.4961 132.908 41.0547ZM131.818 42.5312V40.873C131.818 40.4902 131.795 40.1543 131.748 39.8652C131.705 39.5723 131.641 39.3223 131.555 39.1152C131.469 38.9082 131.359 38.7402 131.227 38.6113C131.098 38.4824 130.947 38.3887 130.775 38.3301C130.607 38.2676 130.418 38.2363 130.207 38.2363C129.949 38.2363 129.721 38.2852 129.521 38.3828C129.322 38.4766 129.154 38.627 129.018 38.834C128.885 39.041 128.783 39.3125 128.713 39.6484C128.643 39.9844 128.607 40.3926 128.607 40.873V42.5312C128.607 42.9141 128.629 43.252 128.672 43.5449C128.719 43.8379 128.787 44.0918 128.877 44.3066C128.967 44.5176 129.076 44.6914 129.205 44.8281C129.334 44.9648 129.482 45.0664 129.65 45.1328C129.822 45.1953 130.012 45.2266 130.219 45.2266C130.484 45.2266 130.717 45.1758 130.916 45.0742C131.115 44.9727 131.281 44.8145 131.414 44.5996C131.551 44.3809 131.652 44.1016 131.719 43.7617C131.785 43.418 131.818 43.0078 131.818 42.5312ZM134.373 45.4258C134.373 45.2422 134.43 45.0879 134.543 44.9629C134.66 44.834 134.828 44.7695 135.047 44.7695C135.266 44.7695 135.432 44.834 135.545 44.9629C135.662 45.0879 135.721 45.2422 135.721 45.4258C135.721 45.6055 135.662 45.7578 135.545 45.8828C135.432 46.0078 135.266 46.0703 135.047 46.0703C134.828 46.0703 134.66 46.0078 134.543 45.8828C134.43 45.7578 134.373 45.6055 134.373 45.4258ZM134.379 40.252C134.379 40.0684 134.436 39.9141 134.549 39.7891C134.666 39.6602 134.834 39.5957 135.053 39.5957C135.271 39.5957 135.438 39.6602 135.551 39.7891C135.668 39.9141 135.727 40.0684 135.727 40.252C135.727 40.4316 135.668 40.584 135.551 40.709C135.438 40.834 135.271 40.8965 135.053 40.8965C134.834 40.8965 134.666 40.834 134.549 40.709C134.436 40.584 134.379 40.4316 134.379 40.252ZM142.564 41.0547V42.3555C142.564 43.0547 142.502 43.6445 142.377 44.125C142.252 44.6055 142.072 44.9922 141.838 45.2852C141.604 45.5781 141.32 45.791 140.988 45.9238C140.66 46.0527 140.289 46.1172 139.875 46.1172C139.547 46.1172 139.244 46.0762 138.967 45.9941C138.689 45.9121 138.439 45.7812 138.217 45.6016C137.998 45.418 137.811 45.1797 137.654 44.8867C137.498 44.5938 137.379 44.2383 137.297 43.8203C137.215 43.4023 137.174 42.9141 137.174 42.3555V41.0547C137.174 40.3555 137.236 39.7695 137.361 39.2969C137.49 38.8242 137.672 38.4453 137.906 38.1602C138.141 37.8711 138.422 37.6641 138.75 37.5391C139.082 37.4141 139.453 37.3516 139.863 37.3516C140.195 37.3516 140.5 37.3926 140.777 37.4746C141.059 37.5527 141.309 37.6797 141.527 37.8555C141.746 38.0273 141.932 38.2578 142.084 38.5469C142.24 38.832 142.359 39.1816 142.441 39.5957C142.523 40.0098 142.564 40.4961 142.564 41.0547ZM141.475 42.5312V40.873C141.475 40.4902 141.451 40.1543 141.404 39.8652C141.361 39.5723 141.297 39.3223 141.211 39.1152C141.125 38.9082 141.016 38.7402 140.883 38.6113C140.754 38.4824 140.604 38.3887 140.432 38.3301C140.264 38.2676 140.074 38.2363 139.863 38.2363C139.605 38.2363 139.377 38.2852 139.178 38.3828C138.979 38.4766 138.811 38.627 138.674 38.834C138.541 39.041 138.439 39.3125 138.369 39.6484C138.299 39.9844 138.264 40.3926 138.264 40.873V42.5312C138.264 42.9141 138.285 43.252 138.328 43.5449C138.375 43.8379 138.443 44.0918 138.533 44.3066C138.623 44.5176 138.732 44.6914 138.861 44.8281C138.99 44.9648 139.139 45.0664 139.307 45.1328C139.479 45.1953 139.668 45.2266 139.875 45.2266C140.141 45.2266 140.373 45.1758 140.572 45.0742C140.771 44.9727 140.938 44.8145 141.07 44.5996C141.207 44.3809 141.309 44.1016 141.375 43.7617C141.441 43.418 141.475 43.0078 141.475 42.5312ZM149.314 41.0547V42.3555C149.314 43.0547 149.252 43.6445 149.127 44.125C149.002 44.6055 148.822 44.9922 148.588 45.2852C148.354 45.5781 148.07 45.791 147.738 45.9238C147.41 46.0527 147.039 46.1172 146.625 46.1172C146.297 46.1172 145.994 46.0762 145.717 45.9941C145.439 45.9121 145.189 45.7812 144.967 45.6016C144.748 45.418 144.561 45.1797 144.404 44.8867C144.248 44.5938 144.129 44.2383 144.047 43.8203C143.965 43.4023 143.924 42.9141 143.924 42.3555V41.0547C143.924 40.3555 143.986 39.7695 144.111 39.2969C144.24 38.8242 144.422 38.4453 144.656 38.1602C144.891 37.8711 145.172 37.6641 145.5 37.5391C145.832 37.4141 146.203 37.3516 146.613 37.3516C146.945 37.3516 147.25 37.3926 147.527 37.4746C147.809 37.5527 148.059 37.6797 148.277 37.8555C148.496 38.0273 148.682 38.2578 148.834 38.5469C148.99 38.832 149.109 39.1816 149.191 39.5957C149.273 40.0098 149.314 40.4961 149.314 41.0547ZM148.225 42.5312V40.873C148.225 40.4902 148.201 40.1543 148.154 39.8652C148.111 39.5723 148.047 39.3223 147.961 39.1152C147.875 38.9082 147.766 38.7402 147.633 38.6113C147.504 38.4824 147.354 38.3887 147.182 38.3301C147.014 38.2676 146.824 38.2363 146.613 38.2363C146.355 38.2363 146.127 38.2852 145.928 38.3828C145.729 38.4766 145.561 38.627 145.424 38.834C145.291 39.041 145.189 39.3125 145.119 39.6484C145.049 39.9844 145.014 40.3926 145.014 40.873V42.5312C145.014 42.9141 145.035 43.252 145.078 43.5449C145.125 43.8379 145.193 44.0918 145.283 44.3066C145.373 44.5176 145.482 44.6914 145.611 44.8281C145.74 44.9648 145.889 45.0664 146.057 45.1328C146.229 45.1953 146.418 45.2266 146.625 45.2266C146.891 45.2266 147.123 45.1758 147.322 45.0742C147.521 44.9727 147.688 44.8145 147.82 44.5996C147.957 44.3809 148.059 44.1016 148.125 43.7617C148.191 43.418 148.225 43.0078 148.225 42.5312ZM150.588 42.508H160.428V43.324H150.588V42.508ZM154.98 42.892H155.964V46.936H154.98V42.892ZM151.824 36.52H152.82V38.008H158.184V36.52H159.168V41.212H151.824V36.52ZM152.82 38.812V40.408H158.184V38.812H152.82ZM169.583 36.076H170.567V46.948H169.583V36.076ZM167.327 40.168H169.727V40.996H167.327V40.168ZM162.131 43.516H162.959C164.999 43.516 166.283 43.48 167.807 43.192L167.903 44.008C166.343 44.284 165.023 44.344 162.959 44.344H162.131V43.516ZM162.131 37.072H167.147V37.9H163.115V43.804H162.131V37.072ZM162.863 40.12H166.679V40.924H162.863V40.12ZM175.643 41.584H185.483V42.4H175.643V41.584ZM180.131 42.1H181.139V44.596H180.131V42.1ZM176.891 45.868H184.391V46.696H176.891V45.868ZM176.891 43.528H177.887V46.096H176.891V43.528ZM180.551 36.352C182.843 36.352 184.355 37.192 184.355 38.536C184.355 39.88 182.843 40.72 180.551 40.72C178.247 40.72 176.747 39.88 176.747 38.536C176.747 37.192 178.247 36.352 180.551 36.352ZM180.551 37.168C178.895 37.168 177.803 37.696 177.803 38.536C177.803 39.388 178.895 39.904 180.551 39.904C182.207 39.904 183.299 39.388 183.299 38.536C183.299 37.696 182.207 37.168 180.551 37.168ZM191.626 37.648H194.938V38.464H191.626V37.648ZM191.626 40.144H194.938V40.972H191.626V40.144ZM189.646 36.724C191.242 36.724 192.442 37.804 192.442 39.304C192.442 40.816 191.242 41.884 189.646 41.884C188.038 41.884 186.85 40.816 186.85 39.304C186.85 37.804 188.038 36.724 189.646 36.724ZM189.646 37.576C188.59 37.576 187.81 38.284 187.81 39.304C187.81 40.324 188.59 41.032 189.646 41.032C190.702 41.032 191.494 40.324 191.494 39.304C191.494 38.284 190.702 37.576 189.646 37.576ZM194.614 36.088H195.61V42.508H194.614V36.088ZM192.046 42.76C194.278 42.76 195.658 43.528 195.658 44.836C195.658 46.156 194.278 46.912 192.046 46.912C189.802 46.912 188.422 46.156 188.422 44.836C188.422 43.528 189.802 42.76 192.046 42.76ZM192.046 43.552C190.402 43.552 189.406 44.032 189.406 44.836C189.406 45.652 190.402 46.132 192.046 46.132C193.678 46.132 194.674 45.652 194.674 44.836C194.674 44.032 193.678 43.552 192.046 43.552Z" fill="white"/>
</g>
</g>
</g>
<defs>
<clipPath id="clip0_754_2578">
<rect width="16" height="16" fill="white" transform="translate(64 34)"/>
</clipPath>
</defs>
</svg>
